<?xml version="1.0" encoding="UTF-8"?>
<svg id="Layer_1" data-name="Layer 1" xmlns="http://www.w3.org/2000/svg" viewBox="0 0 904.7 444">
  <defs>
    <style>
      .cls-1 {
        fill: #87dede;
      }

      .cls-1, .cls-2, .cls-3, .cls-4, .cls-5, .cls-6 {
        stroke-miterlimit: 10;
      }

      .cls-1, .cls-2, .cls-4, .cls-5, .cls-6 {
        stroke: #000;
      }

      .cls-1, .cls-3, .cls-6 {
        stroke-width: 3px;
      }

      .cls-7 {
        font-family: SegoeUI-Bold, 'Segoe UI';
        font-weight: 700;
      }

      .cls-7, .cls-8, .cls-9, .cls-10 {
        fill: #000;
      }

      .cls-7, .cls-9, .cls-10 {
        font-size: 32px;
      }

      .cls-2, .cls-3, .cls-6 {
        fill: none;
      }

      .cls-2, .cls-4, .cls-5 {
        stroke-width: 2px;
      }

      .cls-8 {
        stroke-width: 0px;
      }

      .cls-9 {
        font-family: SegoeUI, 'Segoe UI';
      }

      .cls-11 {
        letter-spacing: -.03em;
      }

      .cls-3 {
        stroke: #fff;
      }

      .cls-12 {
        letter-spacing: -.03em;
      }

      .cls-10 {
        font-family: SegoeUI-Italic, 'Segoe UI';
        font-style: italic;
      }

      .cls-4 {
        fill: #7e8080;
      }

      .cls-13 {
        letter-spacing: -.03em;
      }

      .cls-5 {
        fill: #449119;
      }
    </style>
  </defs>
  <rect class="cls-1" x="1.5" y="1.5" width="896" height="441"/>
  <text class="cls-9" transform="translate(32.52 46.18)"><tspan x="0" y="0">Graphite anode</tspan></text>
  <text class="cls-9" transform="translate(364.52 49.18)"><tspan x="0" y="0">Li</tspan></text>
  <text class="cls-9" transform="translate(387.33 38.52) scale(.58)"><tspan x="0" y="0">+</tspan></text>
  <circle class="cls-4" cx="176" cy="273" r="146.5"/>
  <circle class="cls-5" cx="736" cy="268" r="146.5"/>
  <g>
    <path class="cls-5" d="M613.2,105.65c-10.77,37.7-50.06,59.54-87.77,48.77-6.67-1.9-12.84-4.7-18.42-8.23.43-53.2,43.69-96.19,96.99-96.19.69,0,1.37.01,2.05.02,5.96,10.07,9.43,21.6,9.85,33.58h0c.26,7.27-.6,14.69-2.7,22.05Z"/>
    <g>
      <circle class="cls-3" cx="625.39" cy="168.77" r="13.5"/>
      <circle class="cls-3" cx="544.54" cy="85.89" r="71"/>
      <line class="cls-3" x1="612.5" y1="65.5" x2="637.61" y2="163.05"/>
      <line class="cls-3" x1="520.72" y1="152.92" x2="621.68" y2="181.75"/>
    </g>
  </g>
  <path class="cls-4" d="M292.22,105.65c10.77,37.7,50.06,59.54,87.77,48.77,6.67-1.9,12.84-4.7,18.42-8.23-.43-53.2-43.69-96.19-96.99-96.19-.69,0-1.37.01-2.05.02-5.96,10.07-9.43,21.6-9.85,33.58h0c-.26,7.27.6,14.69,2.7,22.05Z"/>
  <g>
    <circle class="cls-3" cx="280.03" cy="168.77" r="13.5"/>
    <circle class="cls-3" cx="360.87" cy="85.89" r="71"/>
    <line class="cls-3" x1="292.5" y1="66.5" x2="267.81" y2="163.05"/>
    <line class="cls-3" x1="384.7" y1="152.92" x2="283.74" y2="181.75"/>
  </g>
  <text class="cls-9" transform="translate(694.22 46.44)"><tspan class="cls-13" x="0" y="0">L</tspan><tspan class="cls-12" x="13.97" y="0">C</tspan><tspan x="32.92" y="0">O cathode</tspan></text>
  <text class="cls-9" transform="translate(336.22 412.44)"><tspan x="0" y="0">Liquid electrolyte</tspan></text>
  <g>
    <text class="cls-9" transform="translate(694.22 278.45)"><tspan x="0" y="0">Li</tspan></text>
    <text class="cls-10" transform="translate(717.03 284.1) scale(.58)"><tspan x="0" y="0">x</tspan></text>
    <text class="cls-9" transform="translate(725.52 278.45)"><tspan x="0" y="0">CoO</tspan></text>
    <text class="cls-9" transform="translate(788.21 284.1) scale(.58)"><tspan x="0" y="0">2</tspan></text>
  </g>
  <text class="cls-9" transform="translate(147.22 278.45)"><tspan x="0" y="0">Li</tspan></text>
  <text class="cls-10" transform="translate(170.03 284.1) scale(.58)"><tspan x="0" y="0">x</tspan></text>
  <text class="cls-9" transform="translate(178.52 278.45)"><tspan x="0" y="0">C</tspan></text>
  <text class="cls-9" transform="translate(198.33 284.1) scale(.58)"><tspan x="0" y="0">6</tspan></text>
  <g>
    <path class="cls-2" d="M327.5,79.67c2.77-2.19,7.1-5.05,12.9-6.81,3.06-.93,5.93-1.38,8.5-1.54"/>
    <polygon class="cls-8" points="356.67 71.64 345.6 75.81 348.32 71.41 345.85 66.87 356.67 71.64"/>
  </g>
  <g>
    <path class="cls-2" d="M359.18,74.66c-1.34,3.17-2.89,7.98-2.97,13.85-.05,2.99.3,5.7.82,8.06"/>
    <polygon class="cls-8" points="359.54 103.92 351.9 94.9 356.95 95.98 360.4 92.13 359.54 103.92"/>
  </g>
  <text class="cls-9" transform="translate(351.77 129.71)"><tspan x="0" y="0">Li</tspan></text>
  <text class="cls-9" transform="translate(364.52 49.18)"><tspan x="0" y="0">Li</tspan></text>
  <text class="cls-9" transform="translate(387.33 38.52) scale(.58)"><tspan x="0" y="0">+</tspan></text>
  <text class="cls-9" transform="translate(364.52 49.18)"><tspan x="0" y="0">Li</tspan></text>
  <text class="cls-9" transform="translate(387.33 38.52) scale(.58)"><tspan x="0" y="0">+</tspan></text>
  <text class="cls-9" transform="translate(364.52 49.18)"><tspan x="0" y="0">Li</tspan></text>
  <text class="cls-9" transform="translate(387.33 38.52) scale(.58)"><tspan x="0" y="0">+</tspan></text>
  <text class="cls-9" transform="translate(364.52 49.18)"><tspan x="0" y="0">Li</tspan></text>
  <text class="cls-9" transform="translate(387.33 38.52) scale(.58)"><tspan x="0" y="0">+</tspan></text>
  <text class="cls-9" transform="translate(364.52 49.18)"><tspan x="0" y="0">Li</tspan></text>
  <text class="cls-9" transform="translate(387.33 38.52) scale(.58)"><tspan x="0" y="0">+</tspan></text>
  <text class="cls-9" transform="translate(432.21 292.18)"><tspan x="0" y="0">Li</tspan></text>
  <text class="cls-9" transform="translate(455.03 281.52) scale(.58)"><tspan x="0" y="0">+</tspan></text>
  <text class="cls-9" transform="translate(301.77 89.71)"><tspan x="0" y="0">e</tspan></text>
  <text class="cls-7" transform="translate(318.5 79.06) scale(.58)"><tspan x="0" y="0">-</tspan></text>
  <g>
    <path class="cls-2" d="M384.68,51c-1.15,3.16-3.23,7.6-7.07,11.79-1.89,2.05-3.85,3.67-5.74,4.95"/>
    <polygon class="cls-8" points="364.96 71.29 372.51 62.19 372.32 67.35 376.72 70.07 364.96 71.29"/>
  </g>
  <g>
    <path class="cls-2" d="M574.31,81.81c-2.77-2.19-7.1-5.05-12.9-6.81-3.06-.93-5.93-1.38-8.5-1.54"/>
    <polygon class="cls-8" points="545.14 73.78 555.96 69.01 553.49 73.55 556.2 77.95 545.14 73.78"/>
  </g>
  <g>
    <path class="cls-2" d="M542.62,76.8c1.34,3.17,2.89,7.98,2.97,13.85.05,2.99-.3,5.7-.82,8.06"/>
    <polygon class="cls-8" points="542.27 106.06 541.41 94.27 544.86 98.13 549.91 97.04 542.27 106.06"/>
  </g>
  <text class="cls-9" transform="translate(530.39 132.86)"><tspan x="0" y="0">Li</tspan></text>
  <text class="cls-9" transform="translate(512.14 49.32)"><tspan x="0" y="0">Li</tspan></text>
  <text class="cls-9" transform="translate(534.95 38.67) scale(.58)"><tspan x="0" y="0">+</tspan></text>
  <text class="cls-9" transform="translate(576.39 96.86)"><tspan x="0" y="0">e</tspan></text>
  <text class="cls-7" transform="translate(593.13 86.2) scale(.58)"><tspan x="0" y="0">-</tspan></text>
  <g>
    <path class="cls-2" d="M517.13,53.14c1.15,3.16,3.23,7.6,7.07,11.79,1.89,2.05,3.85,3.67,5.74,4.95"/>
    <polygon class="cls-8" points="536.85 73.43 525.09 72.22 529.48 69.5 529.3 64.33 536.85 73.43"/>
  </g>
  <text class="cls-10" transform="translate(439.12 142.35)"><tspan x="0" y="0">i</tspan></text>
  <text class="cls-9" transform="translate(447.4 148.01) scale(.58)"><tspan class="cls-11" x="0" y="0">F</tspan><tspan x="14.53" y="0">ar</tspan></text>
  <text class="cls-10" transform="translate(426.29 338.35)"><tspan x="0" y="0">i</tspan></text>
  <text class="cls-9" transform="translate(434.57 344.01) scale(.58)"><tspan x="0" y="0">ionic</tspan></text>
  <g>
    <path class="cls-6" d="M376.83,305.5h146.35"/>
    <polygon class="cls-8" points="362 305.5 382.89 314.04 377.94 305.5 382.89 296.96 362 305.5"/>
    <polygon class="cls-8" points="538 305.5 517.11 314.04 522.06 305.5 517.11 296.96 538 305.5"/>
  </g>
</svg>